<svg xmlns="http://www.w3.org/2000/svg" width="20" height="20" viewBox="0 0 20 20">
  <g id="Groupe_5119" data-name="Groupe 5119" transform="translate(-480 -481)">
    <g id="Groupe_5117" data-name="Groupe 5117" transform="translate(720 399)">
      <path id="Tracé_1375" data-name="Tracé 1375" d="M-230,83a9,9,0,0,0-9,9,9,9,0,0,0,9,9,9,9,0,0,0,9-9A9,9,0,0,0-230,83Zm0,16a7,7,0,0,1-7-7,7,7,0,0,1,7-7,7,7,0,0,1,7,7A7,7,0,0,1-230,99Z" fill="#707785"/>
    </g>
    <rect id="Rectangle_6518" data-name="Rectangle 6518" width="20" height="20" transform="translate(480 481)" fill="none"/>
  </g>
</svg>
