<svg width="20" height="20" viewBox="0 0 20 20" fill="none" xmlns="http://www.w3.org/2000/svg">
<g clip-path="url(#clip0_2128_21201)">
<path d="M16 10.0001C16 10.8285 15.3284 11.5001 14.5 11.5001C13.6716 11.5001 13 10.8285 13 10.0001C13 9.17163 13.6716 8.50006 14.5 8.50006C15.3284 8.50006 16 9.17163 16 10.0001Z" fill="currentColor"/>
<path fill-rule="evenodd" clip-rule="evenodd" d="M9.37499 17.9301C9.54786 17.9813 9.72774 18.0049 9.90799 18.0001C11.6724 17.797 13.3864 17.2802 14.969 16.4741L15.059 16.4291C17.777 15.1251 19.383 13.3781 19.816 11.3001C19.9378 10.8775 19.9998 10.4399 20 10.0001C20.0016 9.58214 19.9444 9.16606 19.83 8.76407C19.382 6.62307 17.776 4.87107 15.059 3.57107L14.968 3.52608C13.551 2.83808 10.461 1.70207 9.36798 2.07207C8.50503 2.36406 8.51599 3.33097 8.52399 4.03696C8.52999 4.17696 8.53199 4.38007 8.52399 4.52907C7.38141 5.14121 6.30446 5.86867 5.30999 6.70008L2.78599 4.21107L2.61199 4.07707C2.26646 3.8738 1.85964 3.80077 1.46499 3.8712C1.07034 3.94162 0.71388 4.15084 0.459987 4.46107C0.237634 4.7359 0.0897472 5.06332 0.0305515 5.41184C-0.0286442 5.76036 0.00284543 6.11825 0.12199 6.45108L1.34999 10.0061L0.124988 13.5511C0.00415972 13.8866 -0.0280275 14.2476 0.0315357 14.5992C0.0910989 14.9508 0.240392 15.2811 0.464984 15.5581C0.719648 15.8655 1.07535 16.0723 1.4685 16.1416C1.86165 16.2108 2.26661 16.138 2.61099 15.9361L5.31099 13.3151C6.30703 14.1423 7.38535 14.8651 8.52899 15.4721V15.9661C8.52099 16.6721 8.51004 17.6381 9.37499 17.9301ZM6.16699 11.6881C5.93047 11.457 5.61264 11.3281 5.28199 11.3291C4.95209 11.3281 4.63474 11.4554 4.39699 11.6841L1.82399 14.2211C1.82668 14.1896 1.83375 14.1586 1.84499 14.1291L3.26998 10.0031L1.84099 5.86708C1.83099 5.84008 1.82493 5.81179 1.82299 5.78308L4.43899 8.36007C4.68559 8.58035 5.00868 8.69523 5.33898 8.68007C5.6383 8.67302 5.92396 8.5534 6.13899 8.34508C7.22108 7.39597 8.41651 6.58447 9.69799 5.92908C10.3619 5.5367 10.354 4.73064 10.347 4.01847L10.347 4.01507V3.81507C11.6678 4.08905 12.9492 4.52746 14.161 5.12007L14.261 5.16907C15.076 5.56007 17.556 6.75108 18.069 9.18508C18.1452 9.45039 18.1839 9.72504 18.184 10.0011C18.1818 10.2991 18.1377 10.5953 18.053 10.8811C17.5564 13.249 15.0802 14.44 14.2631 14.8331L14.161 14.8821C12.9477 15.4734 11.6679 15.9172 10.349 16.2041V15.9841C10.349 15.9707 10.349 15.9573 10.349 15.9439C10.3493 15.2439 10.3495 14.4601 9.64899 14.0431C8.39627 13.4036 7.22684 12.6127 6.16699 11.6881ZM4.94299 7.01308C4.91366 7.03431 4.88652 7.05843 4.86199 7.08507L4.94299 7.01308Z" fill="currentColor"/>
<path d="M15.7237 -0.20605L18.6396 1.72979L5.99881 20.7702L3.0829 18.8344L15.7237 -0.20605Z" fill="currentColor" stroke="white" stroke-width="1.5"/>
</g>
<defs>
<clipPath id="clip0_2128_21201">
<rect width="20" height="20" fill="white"/>
</clipPath>
</defs>
</svg>

