<svg id="Info" xmlns="http://www.w3.org/2000/svg" width="20" height="20" viewBox="0 0 20 20">
  <g id="Groupe_4153" data-name="Groupe 4153" transform="translate(240 -82)">
    <path id="Tracé_1375" data-name="Tracé 1375" d="M-230,83a9,9,0,0,0-9,9,9,9,0,0,0,9,9,9,9,0,0,0,9-9A9,9,0,0,0-230,83Zm0,16a7,7,0,0,1-7-7,7,7,0,0,1,7-7,7,7,0,0,1,7,7A7,7,0,0,1-230,99Z" fill="currentColor"/>
    <rect id="Rectangle_6123" data-name="Rectangle 6123" width="2" height="5" transform="translate(-231 91)" fill="currentColor"/>
    <rect id="Rectangle_6124" data-name="Rectangle 6124" width="2" height="2" transform="translate(-231 88)" fill="currentColor"/>
  </g>
  <rect id="Rectangle_6125" data-name="Rectangle 6125" width="20" height="20" fill="none"/>
</svg>
