<svg width="20" height="20" viewBox="0 0 20 20" fill="none" xmlns="http://www.w3.org/2000/svg">
<g clip-path="url(#clip0_2429_9)">
<path d="M11.5254 1.52542C9.27783 1.52542 7.12229 2.41828 5.53299 4.00757C3.9437 5.59686 3.05085 7.7524 3.05085 10C3.05085 10.0565 3.06027 10.113 3.06027 10.1789L1.32768 8.44633L0 9.77401L3.99247 13.7665L7.98494 9.77401L6.65725 8.44633L4.9435 10.1601C4.9435 10.1036 4.93409 10.0565 4.93409 10C4.93409 6.36535 7.89078 3.40866 11.5254 3.40866C15.1601 3.40866 18.1168 6.36535 18.1168 10C18.1168 13.6347 15.1601 16.5913 11.5254 16.5913C9.73635 16.5913 8.11676 15.8757 6.93032 14.7175L5.59322 16.0452C7.17513 17.6022 9.30582 18.4748 11.5254 18.4746C13.773 18.4746 15.9286 17.5817 17.5179 15.9924C19.1072 14.4031 20 12.2476 20 10C20 7.7524 19.1072 5.59686 17.5179 4.00757C15.9286 2.41828 13.773 1.52542 11.5254 1.52542Z" fill="#707785"/>
</g>
<defs>
<clipPath id="clip0_2429_9">
<rect width="20" height="20" fill="white"/>
</clipPath>
</defs>
</svg>
