<svg width="16" height="16" viewBox="0 0 16 16" fill="none" xmlns="http://www.w3.org/2000/svg">
<g clip-path="url(#clip0_225_6808)">
<path d="M8 9.6C8.88366 9.6 9.6 8.88366 9.6 8C9.6 7.11634 8.88366 6.4 8 6.4C7.11634 6.4 6.4 7.11634 6.4 8C6.4 8.88366 7.11634 9.6 8 9.6Z" fill="#707785"/>
<path fill-rule="evenodd" clip-rule="evenodd" d="M8 12.8C7.05065 12.8 6.12262 12.5185 5.33327 11.9911C4.54391 11.4636 3.92868 10.714 3.56538 9.83688C3.20208 8.9598 3.10702 7.99468 3.29223 7.06357C3.47744 6.13246 3.9346 5.27718 4.60589 4.60589C5.27718 3.9346 6.13246 3.47744 7.06357 3.29223C7.99468 3.10702 8.9598 3.20208 9.83688 3.56538C10.714 3.92868 11.4636 4.54391 11.9911 5.33327C12.5185 6.12262 12.8 7.05065 12.8 8C12.7987 9.27265 12.2926 10.4928 11.3927 11.3927C10.4928 12.2926 9.27265 12.7987 8 12.8ZM8 4.8C7.3671 4.8 6.74841 4.98768 6.22218 5.3393C5.69594 5.69092 5.28579 6.19069 5.04359 6.77542C4.80139 7.36014 4.73802 8.00355 4.86149 8.62429C4.98496 9.24503 5.28973 9.81522 5.73726 10.2627C6.18479 10.7103 6.75497 11.015 7.37571 11.1385C7.99645 11.262 8.63987 11.1986 9.22459 10.9564C9.80931 10.7142 10.3091 10.3041 10.6607 9.77783C11.0123 9.25159 11.2 8.6329 11.2 8C11.2 7.15131 10.8629 6.33738 10.2627 5.73726C9.66263 5.13714 8.8487 4.8 8 4.8Z" fill="#707785"/>
<path fill-rule="evenodd" clip-rule="evenodd" d="M3.55544 14.6518C4.87104 15.5308 6.41775 16 8 16C10.121 15.9977 12.1545 15.1541 13.6543 13.6543C15.1541 12.1545 15.9977 10.121 16 8C16 6.41775 15.5308 4.87104 14.6518 3.55544C13.7727 2.23985 12.5233 1.21447 11.0615 0.608967C9.59966 0.00346627 7.99113 -0.15496 6.43928 0.153721C4.88743 0.462403 3.46197 1.22433 2.34315 2.34315C1.22433 3.46197 0.462403 4.88743 0.153721 6.43928C-0.15496 7.99113 0.00346627 9.59966 0.608967 11.0615C1.21447 12.5233 2.23985 13.7727 3.55544 14.6518ZM4.44435 2.6786C5.49683 1.97536 6.7342 1.6 8 1.6C9.6968 1.60191 11.3236 2.2768 12.5234 3.47662C13.7232 4.67644 14.3981 6.3032 14.4 8C14.4 9.2658 14.0246 10.5032 13.3214 11.5557C12.6182 12.6081 11.6186 13.4284 10.4492 13.9128C9.27973 14.3972 7.9929 14.524 6.75143 14.277C5.50995 14.0301 4.36958 13.4205 3.47452 12.5255C2.57946 11.6304 1.96992 10.4901 1.72298 9.24858C1.47603 8.0071 1.60277 6.72028 2.08717 5.55083C2.57158 4.38138 3.39188 3.38184 4.44435 2.6786Z" fill="#707785"/>
</g>
<defs>
<clipPath id="clip0_225_6808">
<rect width="16" height="16" fill="white"/>
</clipPath>
</defs>
</svg>