<svg id="Select_polygon" xmlns="http://www.w3.org/2000/svg" width="20" height="20" viewBox="0 0 20 20">
  <rect id="Rectangle_6152" data-name="Rectangle 6152" width="20" height="20" fill="none"/>
  <g id="Groupe_5087" data-name="Groupe 5087" transform="translate(-0.1 -0.081)">
    <g id="Groupe_5084" data-name="Groupe 5084">
      <path id="Tracé_1686" data-name="Tracé 1686" d="M13.989,5.345,12.036,2.576l-3.354.479L8.4,1.075,12.964.424l2.66,3.767Z" fill="#707785"/>
      <path id="Tracé_1687" data-name="Tracé 1687" d="M3,7H1V2.133l4.818-.688L6.1,3.425,3,3.867Z" fill="#707785"/>
      <path id="Tracé_1688" data-name="Tracé 1688" d="M5.237,16.554,1,14.646V10H3v3.354l3.058,1.376Z" fill="#707785"/>
      <path id="Tracé_1689" data-name="Tracé 1689" d="M12.312,19.737l-4.37-1.967.82-1.824,2.925,1.316,1.948-2.548,1.588,1.215Z" fill="#707785"/>
      <path id="Tracé_1690" data-name="Tracé 1690" d="M16.864,13.785,15.276,12.57l1.982-2.594L15.376,7.31l1.635-1.154,2.73,3.868Z" fill="#707785"/>
    </g>
  </g>
</svg>