<svg id="Settings" xmlns="http://www.w3.org/2000/svg" xmlns:xlink="http://www.w3.org/1999/xlink" width="20.006" height="20" viewBox="0 0 20.006 20">
  <defs>
    <clipPath id="clip-path">
      <rect id="Rectangle_6983" data-name="Rectangle 6983" width="20.006" height="20" fill="none"/>
    </clipPath>
  </defs>
  <g id="Groupe_5855" data-name="Groupe 5855" clip-path="url(#clip-path)">
    <path id="Tracé_1887" data-name="Tracé 1887" d="M7.264,20l-.4-3.2a3.624,3.624,0,0,1-.609-.3q-.286-.176-.56-.375l-2.96,1.25L0,12.625l2.562-1.95a2.392,2.392,0,0,1-.025-.338V9.662a2.378,2.378,0,0,1,.025-.337L0,7.375l2.736-4.75L5.7,3.875q.273-.2.572-.375a4.8,4.8,0,0,1,.6-.3l.4-3.2h5.473l.4,3.2a3.751,3.751,0,0,1,.61.3c.19.117.377.242.559.375l2.96-1.25,2.736,4.75-2.562,1.95a2.378,2.378,0,0,1,.025.337v.675a1.251,1.251,0,0,1-.05.338l2.562,1.95-2.736,4.75-2.935-1.25q-.273.2-.572.375a4.8,4.8,0,0,1-.6.3l-.4,3.2Zm1.741-2H10.97l.348-2.65a5.535,5.535,0,0,0,1.431-.588,5.923,5.923,0,0,0,1.206-.937l2.463,1.025.97-1.7L15.25,11.525a3.522,3.522,0,0,0,.174-.738,6.289,6.289,0,0,0,0-1.575,3.528,3.528,0,0,0-.174-.737L17.388,6.85l-.97-1.7L13.955,6.2a5.445,5.445,0,0,0-2.637-1.55L10.995,2H9.03L8.682,4.65a5.561,5.561,0,0,0-1.43.587,5.969,5.969,0,0,0-1.207.938L3.582,5.15l-.97,1.7L4.75,8.45a4.1,4.1,0,0,0-.174.75,6.116,6.116,0,0,0-.05.8,5.909,5.909,0,0,0,.05.775,4.1,4.1,0,0,0,.174.75L2.612,13.15l.97,1.7L6.045,13.8a5.486,5.486,0,0,0,2.637,1.55Zm1.045-4.5a3.348,3.348,0,0,0,2.463-1.025A3.5,3.5,0,0,0,7.584,7.517l-.008.008a3.543,3.543,0,0,0,0,4.95A3.335,3.335,0,0,0,10.05,13.5" fill="#707785"/>
  </g>
</svg>