<svg width="20" height="20" viewBox="0 0 20 20" fill="none" xmlns="http://www.w3.org/2000/svg">
<path d="M0.833328 16.6666V14.3333C0.833328 13.8611 0.954856 13.4271 1.19791 13.0312C1.44097 12.6354 1.76388 12.3333 2.16666 12.125C3.02777 11.6944 3.90277 11.3715 4.79166 11.1562C5.68055 10.941 6.58333 10.8333 7.5 10.8333C8.41666 10.8333 9.31944 10.941 10.2083 11.1562C11.0972 11.3715 11.9722 11.6944 12.8333 12.125C13.2361 12.3333 13.559 12.6354 13.8021 13.0312C14.0451 13.4271 14.1667 13.8611 14.1667 14.3333V16.6666H0.833328ZM15.8333 16.6666V14.1666C15.8333 13.5555 15.6632 12.9687 15.3229 12.4062C14.9826 11.8437 14.5 11.3611 13.875 10.9583C14.5833 11.0416 15.25 11.184 15.875 11.3854C16.5 11.5868 17.0833 11.8333 17.625 12.125C18.125 12.4028 18.5069 12.7118 18.7708 13.0521C19.0347 13.3923 19.1667 13.7639 19.1667 14.1666V16.6666H15.8333ZM7.5 9.99998C6.58333 9.99998 5.79861 9.67359 5.14583 9.02081C4.49305 8.36804 4.16666 7.58331 4.16666 6.66665C4.16666 5.74998 4.49305 4.96526 5.14583 4.31248C5.79861 3.6597 6.58333 3.33331 7.5 3.33331C8.41666 3.33331 9.20138 3.6597 9.85416 4.31248C10.5069 4.96526 10.8333 5.74998 10.8333 6.66665C10.8333 7.58331 10.5069 8.36804 9.85416 9.02081C9.20138 9.67359 8.41666 9.99998 7.5 9.99998ZM15.8333 6.66665C15.8333 7.58331 15.5069 8.36804 14.8542 9.02081C14.2014 9.67359 13.4167 9.99998 12.5 9.99998C12.3472 9.99998 12.1528 9.98262 11.9167 9.9479C11.6806 9.91317 11.4861 9.87498 11.3333 9.83331C11.7083 9.38887 11.9965 8.89581 12.1979 8.35415C12.3993 7.81248 12.5 7.24998 12.5 6.66665C12.5 6.08331 12.3993 5.52081 12.1979 4.97915C11.9965 4.43748 11.7083 3.94442 11.3333 3.49998C11.5278 3.43054 11.7222 3.3854 11.9167 3.36456C12.1111 3.34373 12.3056 3.33331 12.5 3.33331C13.4167 3.33331 14.2014 3.6597 14.8542 4.31248C15.5069 4.96526 15.8333 5.74998 15.8333 6.66665ZM2.49999 15H12.5V14.3333C12.5 14.1805 12.4618 14.0416 12.3854 13.9166C12.309 13.7916 12.2083 13.6944 12.0833 13.625C11.3333 13.25 10.5764 12.9687 9.8125 12.7812C9.04861 12.5937 8.27777 12.5 7.5 12.5C6.72222 12.5 5.95138 12.5937 5.1875 12.7812C4.42361 12.9687 3.66666 13.25 2.91666 13.625C2.79166 13.6944 2.69097 13.7916 2.61458 13.9166C2.53819 14.0416 2.49999 14.1805 2.49999 14.3333V15ZM7.5 8.33331C7.95833 8.33331 8.35069 8.17012 8.67708 7.84373C9.00347 7.51734 9.16666 7.12498 9.16666 6.66665C9.16666 6.20831 9.00347 5.81595 8.67708 5.48956C8.35069 5.16317 7.95833 4.99998 7.5 4.99998C7.04166 4.99998 6.6493 5.16317 6.32291 5.48956C5.99652 5.81595 5.83333 6.20831 5.83333 6.66665C5.83333 7.12498 5.99652 7.51734 6.32291 7.84373C6.6493 8.17012 7.04166 8.33331 7.5 8.33331Z" fill="#707785"/>
</svg>