<svg width="20" height="20" viewBox="0 0 20 20" fill="none" xmlns="http://www.w3.org/2000/svg">
<path fill-rule="evenodd" clip-rule="evenodd" d="M15.883 5V9.69L18 10.253L16.5 15.487H16.4C15.1792 15.432 14.0293 14.8977 13.2 14C12.7996 14.454 12.3072 14.8175 11.7554 15.0665C11.2037 15.3156 10.6053 15.4444 10 15.4444C9.39468 15.4444 8.79629 15.3156 8.24457 15.0665C7.69285 14.8175 7.20042 14.454 6.8 14C5.97072 14.8977 4.82084 15.432 3.6 15.487H3.5L2 10.253L4.112 9.69V5C4.112 4.46957 4.32271 3.96086 4.69779 3.58579C5.07286 3.21071 5.58157 3 6.112 3H8V1H12V3H13.883C14.4134 3 14.9221 3.21071 15.2972 3.58579C15.6723 3.96086 15.883 4.46957 15.883 5ZM13.883 5H6.112V9.126L10 8L13.883 9.126V5Z" fill="#707785"/>
<path d="M13.2 15.68C14.0714 16.4933 15.2086 16.9624 16.4 17H18V19H16.4C15.2599 18.9873 14.1481 18.6433 13.2 18.01C12.252 18.6409 11.1387 18.9774 10 18.9774C8.86129 18.9774 7.74798 18.6409 6.8 18.01C5.84983 18.639 4.73935 18.9825 3.6 19H2V17H3.6C4.7914 16.9624 5.92859 16.4933 6.8 15.68C7.66195 16.5033 8.80805 16.9627 10 16.9627C11.192 16.9627 12.338 16.5033 13.2 15.68Z" fill="#707785"/>
</svg>
