<svg id="Vessel_groups" data-name="Vessel groups" xmlns="http://www.w3.org/2000/svg" width="20" height="20" viewBox="0 0 20 20">
  <rect id="Rectangle_6979" data-name="Rectangle 6979" width="20" height="20" fill="none"/>
  <path id="Tracé_1785" data-name="Tracé 1785" d="M0,0H20V20H0Z" fill="none"/>
  <g id="Groupe_5851" data-name="Groupe 5851">
    <path id="Union_12" data-name="Union 12" d="M5.845,14.607a.2.2,0,0,1-.075-.047.2.2,0,0,1-.055-.113l-.554-4.222L.938,9.671a.195.195,0,0,1-.112-.33L6.72,3.447A.181.181,0,0,1,6.793,3.4L14.358.78a.19.19,0,0,1,.2.046.193.193,0,0,1,.046.2l-2.62,7.564a.2.2,0,0,1-.046.074L6.044,14.558a.194.194,0,0,1-.138.057A.177.177,0,0,1,5.845,14.607Z" fill="#707785"/>
    <path id="Union_12-2" data-name="Union 12" d="M14.422.769a.194.194,0,0,1,.182.258l-2.62,7.564a.2.2,0,0,1-.046.074L6.044,14.558a.193.193,0,0,1-.137.057H5.9a.218.218,0,0,1-.057-.008.2.2,0,0,1-.075-.047.2.2,0,0,1-.055-.113l-.554-4.222L.938,9.671a.195.195,0,0,1-.112-.33L6.72,3.447A.181.181,0,0,1,6.793,3.4L14.358.78a.2.2,0,0,1,.064-.011" fill="#707785"/>
  </g>
  <path id="Tracé_1786" data-name="Tracé 1786" d="M19.174,5.442a.193.193,0,0,0-.137-.057.18.18,0,0,0-.064.011L14.137,7.071,13.5,8.921l3.363-1.165-1.613,4.655L11.5,16.156l-.2-1.515-.154-1.172-1.171-.154-.456-.06L8.149,14.627l1.627.214.554,4.222a.194.194,0,0,0,.056.112.191.191,0,0,0,.074.047.188.188,0,0,0,.057.009h.005a.2.2,0,0,0,.137-.057l5.894-5.894a.181.181,0,0,0,.046-.073L19.22,5.642A.19.19,0,0,0,19.174,5.442Z" fill="#707785"/>
  <path id="Tracé_1787" data-name="Tracé 1787" d="M0,0H20V20H0Z" fill="none"/>
</svg>
