<svg id="VMS" xmlns="http://www.w3.org/2000/svg" width="20" height="20" viewBox="0 0 20 20">
  <path id="Tracé_1480" data-name="Tracé 1480" d="M12.5,9A2.5,2.5,0,1,0,9,11.289V19h2V11.289A2.5,2.5,0,0,0,12.5,9Z" fill="#707785"/>
  <g id="Groupe_4314" data-name="Groupe 4314">
    <path id="Tracé_1481" data-name="Tracé 1481" d="M12.558,12.049l1.3,1.546a5.994,5.994,0,0,0,0-9.19l-1.3,1.546a3.944,3.944,0,0,1,0,6.1Z" fill="#707785" opacity="0.98"/>
    <path id="Tracé_1482" data-name="Tracé 1482" d="M6.144,13.594l1.3-1.545a3.946,3.946,0,0,1,0-6.095l-1.3-1.543a5.993,5.993,0,0,0,.005,9.183Z" fill="#707785" opacity="0.98"/>
  </g>
  <g id="Groupe_4315" data-name="Groupe 4315">
    <path id="Tracé_1483" data-name="Tracé 1483" d="M4.206,15.9,5.494,14.37A6.983,6.983,0,0,1,5.508,3.66L4.218,2.128A8.992,8.992,0,0,0,4.206,15.9Z" fill="#707785" opacity="0.98"/>
    <path id="Tracé_1484" data-name="Tracé 1484" d="M17,9.021a6.985,6.985,0,0,1-2.494,5.349L15.793,15.9A8.99,8.99,0,0,0,15.772,2.12L14.485,3.654A6.983,6.983,0,0,1,17,9.021Z" fill="#707785" opacity="0.98"/>
  </g>
  <path id="Tracé_1485" data-name="Tracé 1485" d="M0,0H20V20H0Z" fill="none"/>
</svg>
