<svg id="VMS" xmlns="http://www.w3.org/2000/svg" width="20" height="20" viewBox="0 0 20 20">
  <path id="Tracé_1485" data-name="Tracé 1485" d="M0,0H20V20H0Z" fill="none"/>
  <g id="Groupe_4317" data-name="Groupe 4317" transform="translate(0 0.329)">
    <path id="Tracé_1491" data-name="Tracé 1491" d="M12.5,9A2.5,2.5,0,1,0,9,11.289V18h2V11.289A2.5,2.5,0,0,0,12.5,9Z" fill="#707785"/>
    <g id="Groupe_4317-2" data-name="Groupe 4317">
      <path id="Tracé_1492" data-name="Tracé 1492" d="M5.5,9A4.472,4.472,0,0,1,7.122,5.57l-1.3-1.547a6.493,6.493,0,0,0,0,9.954l1.3-1.547A4.472,4.472,0,0,1,5.5,9Z" fill="#707785"/>
      <path id="Tracé_1493" data-name="Tracé 1493" d="M14.5,9a4.472,4.472,0,0,1-1.622,3.43l1.3,1.547a6.493,6.493,0,0,0,0-9.954l-1.3,1.547A4.472,4.472,0,0,1,14.5,9Z" fill="#707785"/>
    </g>
    <g id="Groupe_4318" data-name="Groupe 4318">
      <path id="Tracé_1494" data-name="Tracé 1494" d="M3.574,16.658l1.288-1.535a7.981,7.981,0,0,1,0-12.246L3.574,1.342a9.991,9.991,0,0,0,0,15.316Z" fill="#707785"/>
      <path id="Tracé_1495" data-name="Tracé 1495" d="M16.426,1.342,15.138,2.877a7.981,7.981,0,0,1,0,12.246l1.288,1.535a9.991,9.991,0,0,0,0-15.316Z" fill="#707785"/>
    </g>
  </g>
</svg>